<svg width="203" height="50" viewBox="0 0 203 50" fill="none" xmlns="http://www.w3.org/2000/svg">
<path d="M11.064 26.28H7.992V39H0.12V5.736H11.016C15.56 5.736 18.968 6.568 21.24 8.232C23.544 9.896 24.696 12.44 24.696 15.864C24.696 18.008 24.184 19.8 23.16 21.24C22.136 22.648 20.52 23.848 18.312 24.84L26.76 39H17.88L11.064 26.28ZM7.992 20.856H11.304C13.064 20.856 14.376 20.456 15.24 19.656C16.136 18.856 16.584 17.592 16.584 15.864C16.584 14.264 16.104 13.096 15.144 12.36C14.216 11.624 12.776 11.256 10.824 11.256H7.992V20.856ZM37.185 13.512V39H29.601V13.512H37.185ZM33.345 0.0719976C34.657 0.0719976 35.729 0.487998 36.561 1.32C37.425 2.12 37.857 3.144 37.857 4.392C37.857 5.64 37.425 6.68 36.561 7.512C35.729 8.312 34.657 8.712 33.345 8.712C32.033 8.712 30.961 8.312 30.129 7.512C29.297 6.68 28.881 5.64 28.881 4.392C28.881 3.144 29.297 2.12 30.129 1.32C30.961 0.487998 32.033 0.0719976 33.345 0.0719976ZM65.9959 13.512V49.656L58.4119 48.84V36.552C56.7159 38.728 54.4599 39.816 51.6439 39.816C48.4759 39.816 46.0599 38.6 44.3959 36.168C42.7639 33.736 41.9479 30.408 41.9479 26.184C41.9479 23.56 42.3799 21.24 43.2439 19.224C44.1079 17.176 45.3239 15.576 46.8919 14.424C48.4919 13.272 50.3319 12.696 52.4119 12.696C55.0039 12.696 57.1959 13.704 58.9879 15.72L59.3719 13.512H65.9959ZM53.9959 34.248C55.7559 34.248 57.2279 33.288 58.4119 31.368V20.376C57.8039 19.64 57.1959 19.096 56.5879 18.744C55.9799 18.392 55.2759 18.216 54.4759 18.216C53.0359 18.216 51.8999 18.872 51.0679 20.184C50.2359 21.464 49.8199 23.48 49.8199 26.232C49.8199 29.208 50.1719 31.288 50.8759 32.472C51.6119 33.656 52.6519 34.248 53.9959 34.248ZM93.4331 39H86.8571L86.5211 35.784C84.6651 38.472 82.0891 39.816 78.7931 39.816C76.4571 39.816 74.6811 39.112 73.4651 37.704C72.2811 36.296 71.6891 34.328 71.6891 31.8V13.512H79.2731V30.84C79.2731 32.088 79.4651 32.968 79.8491 33.48C80.2651 33.96 80.8891 34.2 81.7211 34.2C83.3211 34.2 84.6971 33.208 85.8491 31.224V13.512H93.4331V39ZM121.622 25.752C121.622 26.808 121.574 27.72 121.478 28.488H105.686C105.942 30.632 106.55 32.136 107.51 33C108.47 33.864 109.798 34.296 111.494 34.296C112.518 34.296 113.51 34.12 114.47 33.768C115.43 33.384 116.47 32.808 117.59 32.04L120.71 36.264C117.734 38.632 114.422 39.816 110.774 39.816C106.646 39.816 103.478 38.6 101.27 36.168C99.0619 33.736 97.9579 30.472 97.9579 26.376C97.9579 23.784 98.4219 21.464 99.3499 19.416C100.278 17.336 101.638 15.704 103.43 14.52C105.222 13.304 107.366 12.696 109.862 12.696C113.542 12.696 116.422 13.848 118.502 16.152C120.582 18.456 121.622 21.656 121.622 25.752ZM114.182 23.592C114.118 19.688 112.742 17.736 110.054 17.736C108.742 17.736 107.718 18.216 106.982 19.176C106.278 20.136 105.846 21.72 105.686 23.928H114.182V23.592ZM132.65 39.816C130.442 39.816 128.714 39.192 127.466 37.944C126.25 36.664 125.642 34.856 125.642 32.52V3.384L133.226 2.568V32.232C133.226 33.288 133.658 33.816 134.522 33.816C134.97 33.816 135.386 33.736 135.77 33.576L137.258 38.952C135.882 39.528 134.346 39.816 132.65 39.816ZM168.308 12.696C170.324 12.696 171.94 13.384 173.156 14.76C174.372 16.104 174.98 17.976 174.98 20.376V39H167.396V21.672C167.396 19.4 166.676 18.264 165.236 18.264C164.436 18.264 163.732 18.536 163.124 19.08C162.516 19.624 161.924 20.456 161.348 21.576V39H153.764V21.672C153.764 19.4 153.044 18.264 151.604 18.264C150.836 18.264 150.132 18.552 149.492 19.128C148.884 19.672 148.292 20.488 147.716 21.576V39H140.132V13.512H146.756L147.284 16.488C148.276 15.208 149.364 14.264 150.548 13.656C151.764 13.016 153.14 12.696 154.676 12.696C156.116 12.696 157.348 13.048 158.372 13.752C159.428 14.456 160.196 15.448 160.676 16.728C161.7 15.352 162.82 14.344 164.036 13.704C165.284 13.032 166.708 12.696 168.308 12.696ZM202.903 25.752C202.903 26.808 202.855 27.72 202.759 28.488H186.967C187.223 30.632 187.831 32.136 188.791 33C189.751 33.864 191.079 34.296 192.775 34.296C193.799 34.296 194.791 34.12 195.751 33.768C196.711 33.384 197.751 32.808 198.871 32.04L201.991 36.264C199.015 38.632 195.703 39.816 192.055 39.816C187.927 39.816 184.759 38.6 182.551 36.168C180.343 33.736 179.239 30.472 179.239 26.376C179.239 23.784 179.703 21.464 180.631 19.416C181.559 17.336 182.919 15.704 184.711 14.52C186.503 13.304 188.647 12.696 191.143 12.696C194.823 12.696 197.703 13.848 199.783 16.152C201.863 18.456 202.903 21.656 202.903 25.752ZM195.463 23.592C195.399 19.688 194.023 17.736 191.335 17.736C190.023 17.736 188.999 18.216 188.263 19.176C187.559 20.136 187.127 21.72 186.967 23.928H195.463V23.592Z" fill="black"/>
</svg>
