<svg width="216" height="43" viewBox="0 0 216 43" fill="none" xmlns="http://www.w3.org/2000/svg">
<path d="M11.064 22.28H7.992V35H0.12V1.736H11.016C15.56 1.736 18.968 2.568 21.24 4.232C23.544 5.896 24.696 8.44 24.696 11.864C24.696 14.008 24.184 15.8 23.16 17.24C22.136 18.648 20.52 19.848 18.312 20.84L26.76 35H17.88L11.064 22.28ZM7.992 16.856H11.304C13.064 16.856 14.376 16.456 15.24 15.656C16.136 14.856 16.584 13.592 16.584 11.864C16.584 10.264 16.104 9.096 15.144 8.36C14.216 7.624 12.776 7.256 10.824 7.256H7.992V16.856ZM37.617 1.736V35H29.745V1.736H37.617ZM64.4475 32.84C66.5275 32.84 68.3355 33.096 69.8715 33.608C71.4075 34.088 72.8795 34.84 74.2875 35.864L69.5355 42.056C67.7115 40.008 65.8395 38.424 63.9195 37.304C61.9995 36.216 59.6155 35.672 56.7675 35.672C53.7915 35.672 51.2155 35 49.0395 33.656C46.8635 32.28 45.1835 30.296 43.9995 27.704C42.8475 25.112 42.2715 21.992 42.2715 18.344C42.2715 14.76 42.8635 11.656 44.0475 9.032C45.2635 6.408 46.9915 4.408 49.2315 3.032C51.4715 1.624 54.1435 0.919998 57.2475 0.919998C61.9835 0.919998 65.6635 2.44 68.2875 5.48C70.9435 8.52 72.2715 12.808 72.2715 18.344C72.2715 25.128 69.6635 29.96 64.4475 32.84ZM50.5275 18.344C50.5275 22.44 51.0875 25.416 52.2075 27.272C53.3275 29.128 55.0075 30.056 57.2475 30.056C59.5515 30.056 61.2475 29.144 62.3355 27.32C63.4555 25.464 64.0155 22.472 64.0155 18.344C64.0155 14.216 63.4555 11.24 62.3355 9.416C61.2155 7.592 59.5195 6.68 57.2475 6.68C54.9755 6.68 53.2795 7.608 52.1595 9.464C51.0715 11.288 50.5275 14.248 50.5275 18.344ZM102.436 23.96C102.436 26.232 101.94 28.264 100.948 30.056C99.9881 31.848 98.5321 33.256 96.5801 34.28C94.6281 35.304 92.2441 35.816 89.4281 35.816C85.2041 35.816 81.9881 34.744 79.7801 32.6C77.5721 30.456 76.4681 27.576 76.4681 23.96V1.736H84.3401V23.624C84.3401 25.768 84.7401 27.368 85.5401 28.424C86.3721 29.448 87.6681 29.96 89.4281 29.96C91.2201 29.96 92.5161 29.448 93.3161 28.424C94.1481 27.368 94.5641 25.768 94.5641 23.624V1.736H102.436V23.96ZM128.614 1.736L127.798 7.352H116.086V15.32H126.31V20.84H116.086V29.336H128.614V35H108.214V1.736H128.614ZM141.351 1.736V28.76H154.311L153.495 35H133.479V1.736H141.351ZM190.644 35H182.916L182.34 21.992C182.18 18.888 182.1 16.12 182.1 13.688C182.1 11.832 182.148 10.072 182.244 8.408L177.108 31.496H169.668L164.196 8.408C164.388 11.192 164.484 13.816 164.484 16.28C164.484 18.136 164.436 20.072 164.34 22.088L163.764 35H156.084L158.58 1.736H168.516L173.508 24.296L178.164 1.736H188.148L190.644 35ZM215.754 1.736L214.938 7.352H203.226V15.32H213.45V20.84H203.226V29.336H215.754V35H195.354V1.736H215.754Z" fill="black"/>
</svg>
